<svg width="101" height="100" viewBox="0 0 101 100" fill="none" xmlns="http://www.w3.org/2000/svg">
<circle cx="50.4995" cy="50" r="50" fill="#BAE5FF" fill-opacity="0.2"/>
<path d="M60.2915 67.3439H41.5415C34.6978 67.3439 30.7603 63.4064 30.7603 56.5626V43.4376C30.7603 36.5939 34.6978 32.6564 41.5415 32.6564H54.6665C55.4353 32.6564 56.0728 33.2939 56.0728 34.0626C56.0728 34.8314 55.4353 35.4689 54.6665 35.4689H41.5415C36.179 35.4689 33.5728 38.0751 33.5728 43.4376V56.5626C33.5728 61.9251 36.179 64.5314 41.5415 64.5314H60.2915C65.654 64.5314 68.2603 61.9251 68.2603 56.5626V47.1876C68.2603 46.4189 68.8978 45.7814 69.6665 45.7814C70.4353 45.7814 71.0728 46.4189 71.0728 47.1876V56.5626C71.0728 63.4064 67.1353 67.3439 60.2915 67.3439Z" fill="#BAE5FF"/>
<path d="M50.9162 51.6314C49.3412 51.6314 47.7475 51.1439 46.5287 50.1502L40.66 45.4627C40.06 44.9752 39.9475 44.0939 40.435 43.4939C40.9225 42.8939 41.8037 42.7815 42.4037 43.269L48.2725 47.9565C49.6975 49.1002 52.1162 49.1002 53.5412 47.9565L55.7537 46.1939C56.3537 45.7064 57.2537 45.8002 57.7225 46.4189C58.21 47.0189 58.1162 47.9189 57.4975 48.3877L55.2849 50.1502C54.0849 51.1439 52.4912 51.6314 50.9162 51.6314Z" fill="#BAE5FF"/>
<path d="M64.979 43.9064C61.6228 43.9064 58.8853 41.1689 58.8853 37.8126C58.8853 34.4564 61.6228 31.7189 64.979 31.7189C68.3353 31.7189 71.0728 34.4564 71.0728 37.8126C71.0728 41.1689 68.3353 43.9064 64.979 43.9064ZM64.979 34.5314C63.179 34.5314 61.6978 36.0126 61.6978 37.8126C61.6978 39.6126 63.179 41.0939 64.979 41.0939C66.779 41.0939 68.2603 39.6126 68.2603 37.8126C68.2603 36.0126 66.779 34.5314 64.979 34.5314Z" fill="#BAE5FF"/>
</svg>
