<svg width="101" height="100" viewBox="0 0 101 100" fill="none" xmlns="http://www.w3.org/2000/svg">
<circle cx="50.4999" cy="49.9999" r="50" fill="#BAE5FF" fill-opacity="0.2"/>
<path d="M62.5831 47.6562C61.8144 47.6562 61.1769 47.0187 61.1769 46.25V42.5C61.1769 36.5938 59.5081 32.6562 51.3331 32.6562C43.1581 32.6562 41.4894 36.5938 41.4894 42.5V46.25C41.4894 47.0187 40.8519 47.6562 40.0831 47.6562C39.3144 47.6562 38.6769 47.0187 38.6769 46.25V42.5C38.6769 37.0625 39.9894 29.8438 51.3331 29.8438C62.6769 29.8438 63.9894 37.0625 63.9894 42.5V46.25C63.9894 47.0187 63.3519 47.6562 62.5831 47.6562Z" fill="#BAE5FF"/>
<path d="M60.7081 70.1562H41.9581C33.6894 70.1562 31.1769 67.6437 31.1769 59.375V55.625C31.1769 47.3563 33.6894 44.8438 41.9581 44.8438H60.7081C68.9769 44.8438 71.4894 47.3563 71.4894 55.625V59.375C71.4894 67.6437 68.9769 70.1562 60.7081 70.1562ZM41.9581 47.6562C35.2456 47.6562 33.9894 48.9313 33.9894 55.625V59.375C33.9894 66.0688 35.2456 67.3438 41.9581 67.3438H60.7081C67.4206 67.3438 68.6769 66.0688 68.6769 59.375V55.625C68.6769 48.9313 67.4206 47.6562 60.7081 47.6562H41.9581Z" fill="#BAE5FF"/>
<path d="M43.8331 59.3749C43.5894 59.3749 43.3456 59.3187 43.1206 59.2249C42.8769 59.1312 42.6894 58.9999 42.5019 58.8311C42.1644 58.4749 41.9581 58.0061 41.9581 57.4999C41.9581 57.2561 42.0144 57.0124 42.1081 56.7874C42.2019 56.5436 42.3331 56.3562 42.5019 56.1687C42.6894 55.9999 42.8769 55.8686 43.1206 55.7749C43.7956 55.4749 44.6394 55.6437 45.1644 56.1687C45.3331 56.3562 45.4644 56.5624 45.5582 56.7874C45.6519 57.0124 45.7081 57.2561 45.7081 57.4999C45.7081 57.9874 45.5019 58.4749 45.1644 58.8311C44.8081 59.1686 44.3206 59.3749 43.8331 59.3749Z" fill="#BAE5FF"/>
<path d="M51.3331 59.3747C50.8456 59.3747 50.3581 59.1684 50.0019 58.8309C49.6644 58.4747 49.4581 58.006 49.4581 57.4997C49.4581 57.256 49.4956 57.0122 49.6081 56.7872C49.7019 56.5622 49.8331 56.356 50.0019 56.1685C50.4331 55.7372 51.0894 55.5309 51.6894 55.6622C51.8206 55.6809 51.9331 55.7184 52.0456 55.7747C52.1581 55.8122 52.2706 55.8685 52.3831 55.9435C52.4769 55.9997 52.5706 56.0935 52.6644 56.1685C52.8331 56.356 52.9644 56.5622 53.0582 56.7872C53.1519 57.0122 53.2081 57.256 53.2081 57.4997C53.2081 58.006 53.0019 58.4747 52.6644 58.8309C52.5706 58.9059 52.4769 58.9809 52.3831 59.0559C52.2706 59.1309 52.1581 59.1872 52.0456 59.2247C51.9331 59.281 51.8206 59.3185 51.6894 59.3372C51.5769 59.356 51.4456 59.3747 51.3331 59.3747Z" fill="#BAE5FF"/>
<path d="M58.8331 59.3747C58.3269 59.3747 57.8581 59.1684 57.5019 58.8309C57.3331 58.6434 57.2019 58.4372 57.1081 58.2122C57.0144 57.9872 56.9581 57.7435 56.9581 57.4997C56.9581 57.0122 57.1644 56.5247 57.5019 56.1685C57.5956 56.0935 57.6894 56.0185 57.7831 55.9435C57.8956 55.8685 58.0081 55.8122 58.1206 55.7747C58.2331 55.7184 58.3456 55.6809 58.4581 55.6622C59.0769 55.5309 59.7144 55.7372 60.1644 56.1685C60.5019 56.5247 60.7081 56.9935 60.7081 57.4997C60.7081 57.7435 60.6519 57.9872 60.5582 58.2122C60.4644 58.456 60.3331 58.6434 60.1644 58.8309C59.8081 59.1684 59.3206 59.3747 58.8331 59.3747Z" fill="#BAE5FF"/>
</svg>
