<svg width="101" height="100" viewBox="0 0 101 100" fill="none" xmlns="http://www.w3.org/2000/svg">
<circle cx="50.4998" cy="50.0001" r="50" fill="#BAE5FF" fill-opacity="0.2"/>
<path d="M40.0037 70.1563C39.8162 70.1563 39.6099 70.1376 39.4412 70.1188L35.3724 69.5564C33.4224 69.2938 31.6599 67.5501 31.3599 65.5626L30.7974 61.4564C30.6099 60.1439 31.1724 58.4376 32.1099 57.4813L40.3412 49.2501C39.0099 43.9251 40.5474 38.3001 44.4662 34.4188C50.5412 28.3626 60.4224 28.3439 66.5162 34.4188C69.4599 37.3626 71.0724 41.2814 71.0724 45.4438C71.0724 49.6063 69.4599 53.5251 66.5162 56.4688C62.5787 60.3688 56.9724 61.9063 51.6849 60.5563L43.4349 68.7876C42.6474 69.6126 41.2412 70.1563 40.0037 70.1563ZM55.4724 32.6751C52.1912 32.6751 48.9286 33.9126 46.4349 36.4063C43.0599 39.7626 41.8412 44.6751 43.2474 49.2501C43.3974 49.7564 43.2662 50.2814 42.8912 50.6564L34.0786 59.4688C33.7599 59.7876 33.4974 60.6126 33.5537 61.0438L34.1162 65.1501C34.2287 65.8626 34.9974 66.6688 35.7099 66.7626L39.7974 67.3251C40.2474 67.4001 41.0724 67.1376 41.3912 66.8188L50.2412 57.9876C50.6162 57.6126 51.1599 57.5001 51.6474 57.6501C56.1662 59.0751 61.0974 57.8563 64.4724 54.4813C66.8724 52.0814 68.2037 48.8563 68.2037 45.4438C68.2037 42.0126 66.8724 38.8063 64.4724 36.4063C62.0349 33.9313 58.7537 32.6751 55.4724 32.6751Z" fill="#BAE5FF"/>
<path d="M45.6477 66.0127C45.2914 66.0127 44.9352 65.8814 44.6539 65.6001L40.3414 61.2876C39.7977 60.7439 39.7977 59.8439 40.3414 59.3001C40.8852 58.7564 41.7852 58.7564 42.3289 59.3001L46.6414 63.6126C47.1852 64.1564 47.1852 65.0564 46.6414 65.6001C46.3602 65.8814 46.0039 66.0127 45.6477 66.0127Z" fill="#BAE5FF"/>
<path d="M55.6033 49.5312C53.2783 49.5312 51.3845 47.6375 51.3845 45.3125C51.3845 42.9875 53.2783 41.0938 55.6033 41.0938C57.9283 41.0938 59.822 42.9875 59.822 45.3125C59.822 47.6375 57.9283 49.5312 55.6033 49.5312ZM55.6033 43.9062C54.8345 43.9062 54.197 44.5438 54.197 45.3125C54.197 46.0813 54.8345 46.7188 55.6033 46.7188C56.372 46.7188 57.0095 46.0813 57.0095 45.3125C57.0095 44.5438 56.372 43.9062 55.6033 43.9062Z" fill="#BAE5FF"/>
</svg>
