<svg width="121" height="120" viewBox="0 0 121 120" fill="none" xmlns="http://www.w3.org/2000/svg">
<circle cx="60.5" cy="60" r="60" fill="#BAE5FF" fill-opacity="0.2"/>
<path d="M61.4999 84.21C59.0474 84.21 56.6174 83.49 54.7049 82.0725L45.0299 74.85C42.4649 72.9375 40.4624 68.9325 40.4624 65.76V49.02C40.4624 45.555 43.0049 41.865 46.2674 40.65L57.4949 36.4425C59.7224 35.61 63.2324 35.61 65.4599 36.4425L76.6874 40.65C79.9499 41.865 82.4924 45.555 82.4924 49.02V65.7375C82.4924 68.9325 80.4899 72.915 77.9249 74.8275L68.2499 82.05C66.3824 83.49 63.9524 84.21 61.4999 84.21ZM58.6874 39.615L47.4599 43.8225C45.5474 44.5425 43.8599 46.9725 43.8599 49.0425V65.76C43.8599 67.8975 45.3674 70.89 47.0549 72.15L56.7299 79.3725C59.3174 81.3075 63.6824 81.3075 66.2924 79.3725L75.9674 72.15C77.6774 70.8675 79.1624 67.8975 79.1624 65.76V49.02C79.1624 46.9725 77.4749 44.5425 75.5624 43.8L64.3349 39.5925C62.8049 39.0525 60.1949 39.0525 58.6874 39.615Z" fill="#BAE5FF"/>
<path d="M58.485 65.0175C58.0575 65.0175 57.63 64.86 57.2925 64.5225L53.67 60.9C53.0175 60.2475 53.0175 59.1675 53.67 58.515C54.3225 57.8625 55.4025 57.8625 56.055 58.515L58.485 60.945L66.9675 52.4625C67.62 51.81 68.7 51.81 69.3525 52.4625C70.005 53.115 70.005 54.195 69.3525 54.8475L59.6775 64.5225C59.34 64.86 58.9125 65.0175 58.485 65.0175Z" fill="#BAE5FF"/>
</svg>
