<svg width="52" height="62" viewBox="0 0 52 62" fill="none" xmlns="http://www.w3.org/2000/svg">
<path d="M37.1772 0H52V39.4899C52 44.0537 50.9098 48.0296 48.7294 51.4176C46.549 54.7856 43.5084 57.3963 39.6076 59.2498C35.7069 61.0833 31.176 62 26.015 62C20.794 62 16.2331 61.0833 12.3324 59.2498C8.43162 57.3963 5.40104 54.7856 3.24062 51.4176C1.08021 48.0296 0 44.0537 0 39.4899V0H14.8529V38.2044C14.8529 40.3169 15.3129 42.2003 16.2331 43.8544C17.1733 45.5085 18.4836 46.8039 20.1639 47.7406C21.8442 48.6773 23.7946 49.1456 26.015 49.1456C28.2354 49.1456 30.1758 48.6773 31.8361 47.7406C33.5164 46.8039 34.8267 45.5085 35.7669 43.8544C36.7071 42.2003 37.1772 40.3169 37.1772 38.2044V0Z" fill="#BAE5FF"/>
</svg>
